PathFileType	4	(X/Y/Z)	Kaydara	
DataRate	CameraRate	NumFrames	NumMarkers	Units	OrigDataRate	OrigDataStartFrame	OrigNumFrames	
240.00	240.00	4	72	mm	240.00	267	355	
Frame#	Time	Hips			RightUpLeg			RightLeg			RightFoot			RightFoot_End			LeftUpLeg			LeftLeg			LeftFoot			LeftFoot_End			Spine			Spine1			Spine2			Spine3			Neck			Head			Head_End			RightShoulder			RightArm			RightForeArm			RightHand			RightHandThumb1			RightHandThumb2			RightHandThumb3			RightHandThumb3_End			RightInHandIndex			RightHandIndex1			RightHandIndex2			RightHandIndex3			RightHandIndex3_End			RightInHandMiddle			RightHandMiddle1			RightHandMiddle2			RightHandMiddle3			RightHandMiddle3_End			RightInHandRing			RightHandRing1			RightHandRing2			RightHandRing3			RightHandRing3_End			RightInHandPinky			RightHandPinky1			RightHandPinky2			RightHandPinky3			RightHandPinky3_End			LeftShoulder			LeftArm			LeftForeArm			LeftHand			LeftHandThumb1			LeftHandThumb2			LeftHandThumb3			LeftHandThumb3_End			LeftInHandIndex			LeftHandIndex1			LeftHandIndex2			LeftHandIndex3			LeftHandIndex3_End			LeftInHandMiddle			LeftHandMiddle1			LeftHandMiddle2			LeftHandMiddle3			LeftHandMiddle3_End			LeftInHandRing			LeftHandRing1			LeftHandRing2			LeftHandRing3			LeftHandRing3_End			LeftInHandPinky			LeftHandPinky1			LeftHandPinky2			LeftHandPinky3			LeftHandPinky3_End			
		X1	Y1	Z1	X2	Y2	Z2	X3	Y3	Z3	X4	Y4	Z4	X5	Y5	Z5	X6	Y6	Z6	X7	Y7	Z7	X8	Y8	Z8	X9	Y9	Z9	X10	Y10	Z10	X11	Y11	Z11	X12	Y12	Z12	X13	Y13	Z13	X14	Y14	Z14	X15	Y15	Z15	X16	Y16	Z16	X17	Y17	Z17	X18	Y18	Z18	X19	Y19	Z19	X20	Y20	Z20	X21	Y21	Z21	X22	Y22	Z22	X23	Y23	Z23	X24	Y24	Z24	X25	Y25	Z25	X26	Y26	Z26	X27	Y27	Z27	X28	Y28	Z28	X29	Y29	Z29	X30	Y30	Z30	X31	Y31	Z31	X32	Y32	Z32	X33	Y33	Z33	X34	Y34	Z34	X35	Y35	Z35	X36	Y36	Z36	X37	Y37	Z37	X38	Y38	Z38	X39	Y39	Z39	X40	Y40	Z40	X41	Y41	Z41	X42	Y42	Z42	X43	Y43	Z43	X44	Y44	Z44	X45	Y45	Z45	X46	Y46	Z46	X47	Y47	Z47	X48	Y48	Z48	X49	Y49	Z49	X50	Y50	Z50	X51	Y51	Z51	X52	Y52	Z52	X53	Y53	Z53	X54	Y54	Z54	X55	Y55	Z55	X56	Y56	Z56	X57	Y57	Z57	X58	Y58	Z58	X59	Y59	Z59	X60	Y60	Z60	X61	Y61	Z61	X62	Y62	Z62	X63	Y63	Z63	X64	Y64	Z64	X65	Y65	Z65	X66	Y66	Z66	X67	Y67	Z67	X68	Y68	Z68	X69	Y69	Z69	X70	Y70	Z70	X71	Y71	Z71	X72	Y72	Z72	

267	1.108	-78.98710000000028	906.651	56.2195	-76.45907999999963	859.06052	-24.22762	-153.66834999999992	450.02939999999995	-69.59473000000001	-52.89890000000014	93.78628000000002	-190.32524000000004	-128.62477000000035	12.990450000000003	-34.516909999999996	-75.76287999999931	925.07055	148.51292	-120.41481999999996	524.9957999999998	264.33696	-220.91817999999967	95.91338	293.57704	-336.3033599999999	2.36885	173.26789999999997	-105.25423000000046	1037.95149	5.757099999999999	-155.64469999999983	1109.5814	-36.36175000000001	-214.55208999999923	1179.1237900000003	-80.22771	-280.3741199999995	1237.39356	-121.66851	-351.45596000000023	1299.2438	-165.20951000000002	-417.1173399999998	1355.5893100000005	-203.55177	-543.1089099999999	1446.7419300000001	-239.01407999999998	-332.3004899999996	1257.9369600000002	-173.40725000000003	-386.5560000000005	1154.4531900000002	-223.21227	-454.9785900000006	966.2482500000001	-49.09060000000001	-492.6894400000001	732.41986	57.21226999999999	-514.4274699999996	714.0070600000001	85.23634000000001	-508.42069000000083	699.12841	118.38452	-500.6257999999998	687.0054300000002	139.52152999999998	-491.03778000000057	675.39212	155.47660999999997	-505.41877999999997	704.6718300000002	80.11393	-503.05616999999984	661.4978099999998	110.97865000000003	-491.0276299999996	638.5648699999999	136.26458	-480.9749099999999	632.99626	153.26589999999996	-470.9176500000003	634.24797	168.20200000000006	-495.1840200000006	701.7216200000003	73.92405	-487.3465699999997	658.0131900000001	100.67936999999999	-472.86528	632.7484299999999	127.35925000000005	-460.0864499999998	625.91479	147.43303	-448.7656999999999	627.2283400000002	163.56305	-488.0948099999996	700.6467100000001	68.71803	-475.15499	660.27202	88.04455999999999	-461.15877	638.0754099999999	110.32492000000002	-448.10275	631.3905	129.17046999999997	-437.1125400000001	632.5813600000001	144.09166	-479.3516099999997	701.3858699999998	62.18006000000001	-462.36538999999993	664.4864200000001	75.73374999999999	-449.0695400000004	646.6147599999999	91.97166	-438.53629	641.69162	104.94207000000002	-428.2194099999997	642.7194	117.71345	-322.4290799999999	1300.74931	-127.42313999999999	-285.2257500000005	1349.69026	-14.67042	-328.36708	1091.17759	21.755629999999996	-341.0876900000003	832.5107600000001	17.343510000000002	-349.46478000000025	807.2433899999999	47.14798000000001	-375.37456999999995	782.14569	54.567249999999994	-392.7986200000005	763.43587	55.48680999999999	-406.7942899999998	746.78456	52.620029999999986	-346.14570000000003	799.5880699999999	35.971140000000005	-359.6637300000002	748.6948200000002	42.99594	-379.04259	718.20038	40.8669	-396.0195899999999	706.8963599999998	38.60593	-413.3963299999996	702.7031299999999	36.10225	-344.46411999999964	798.24319	23.84131999999999	-356.7368000000006	747.8745899999999	24.13409	-377.6297199999999	714.5928700000001	20.17882	-397.9903200000008	700.95202	16.667869999999986	-416.9445399999995	696.3624300000001	13.547659999999986	-342.82852	798.52358	15.137240000000006	-352.10725	753.42725	7.975179999999995	-370.04052000000047	724.4925499999999	2.8586699999999965	-389.53279999999995	711.37406	-1.4143100000000004	-407.2848299999996	707.07727	-4.768119999999996	-341.3600999999999	800.85813	4.548159999999996	-348.6252800000002	760.6901300000002	-8.396069999999995	-362.5136000000002	737.8325400000001	-15.066229999999997	-376.5030400000005	728.41491	-19.42763	-392.09706000000006	724.69559	-23.114890000000003
268	1.113	-78.98710000000028	906.651	56.2195	-78.3700600000002	858.5535599999998	-23.963040000000003	-155.6817000000001	449.55024999999995	-69.40642999999999	-54.535429999999906	93.53078	-190.48107	-130.22044000000005	12.877079999999998	-34.57927000000001	-74.0315099999998	925.5773400000002	148.33349	-118.79907999999978	525.57534	264.36395000000005	-219.39768999999978	96.51379	293.58279999999996	-334.66085999999996	2.86709	173.23618	-104.39929000000029	1037.9740699999998	5.37949	-154.6599100000003	1109.76931	-36.61281999999999	-213.5335099999993	1179.4785500000003	-80.25877000000001	-279.4649099999997	1237.8820800000003	-121.3358	-350.6585299999997	1299.8797799999995	-164.48269000000002	-416.40612000000056	1356.37037	-202.46203	-542.2249700000002	1447.92941	-237.48786	-331.90192000000025	1258.3703899999998	-172.57900999999998	-387.65490000000045	1154.65387	-220.19813	-450.9042099999997	969.6569099999999	-40.76359000000001	-492.7626599999994	736.46742	65.39037	-512.2547299999997	719.3988099999998	95.81476	-503.4461800000008	704.25757	128.20935	-494.04763	691.7414900000001	148.44582999999997	-483.4199699999999	679.6206300000001	163.32874999999996	-504.4263899999996	709.5470800000002	89.7979	-501.11441000000013	666.36551	120.56462000000003	-487.67335	642.81963	144.54196999999996	-476.1203799999994	636.70821	160.36255	-464.4017300000005	637.40156	174.07367999999997	-495.1340599999994	705.9964699999999	82.53054999999999	-486.8806000000004	661.9560899999999	108.60784	-470.9844499999999	635.9425400000001	133.71639	-456.4563199999993	628.4156699999997	152.29684	-443.34722000000056	629.0996099999999	167.05305999999996	-488.74460999999974	704.50237	76.57592000000001	-476.0678399999997	663.4803300000001	94.67456000000003	-460.9682700000003	640.54981	115.43972000000002	-446.29385	633.15307	132.76750000000004	-433.65481999999975	633.7314999999999	146.36033999999998	-480.7589000000007	704.72084	69.09825000000001	-464.5132199999998	666.92272	80.98033000000001	-450.53517999999985	648.33939	95.78304000000001	-438.91885999999977	642.83707	107.53904	-427.1974399999999	643.28782	119.07194	-321.1410500000002	1301.48837	-127.08260000000001	-282.1338000000005	1351.82655	-15.561369999999997	-323.03323999999975	1093.64717	25.51755	-338.0480399999997	835.12429	20.014199999999995	-344.34424000000035	810.2983899999999	50.68918000000001	-369.68454999999994	785.34392	60.24954000000001	-387.0087000000003	766.67221	62.6456	-401.1749	749.9999099999999	60.99725000000001	-341.81136999999944	802.4790599999998	39.42042	-354.8253999999997	751.70974	48.09907999999999	-374.3150000000005	721.21344	47.75969	-391.4115899999997	709.9005000000001	46.84547000000001	-408.9215199999999	705.6946700000001	45.61442	-340.9762099999998	800.9579899999999	27.22380000000002	-353.21497999999974	750.615	29.093370000000007	-374.3426299999992	717.3074899999999	27.07758000000001	-394.90215999999964	703.64449	25.18500999999999	-414.02869999999984	699.0355600000001	23.454169999999984	-339.9486100000004	801.11127	18.424059999999997	-349.71642000000065	755.92904	12.573789999999995	-367.9707699999999	726.9475300000001	9.131650000000008	-387.71680000000015	713.79475	6.411190000000005	-405.6601700000001	709.4736599999999	4.359679999999997	-339.21798000000035	803.2916400000001	7.72607	-347.3768600000003	762.9515899999999	-4.102580000000003	-361.7019300000002	740.0189400000003	-9.462760000000003	-375.96335	730.5581099999999	-12.706640000000007	-391.77685999999994	726.8068000000001	-15.248840000000001
269	1.117	-78.98710000000028	906.651	56.2195	-79.07045000000016	858.37915	-23.86049	-156.40854000000036	449.38655000000006	-69.35524	-54.90494000000035	93.57765	-190.74942999999996	-130.54079000000002	12.99792	-34.78553999999999	-73.3996100000004	925.7512199999999	148.26140000000004	-118.25616999999966	525.82276	264.51077999999995	-218.97767000000022	96.78881	293.71152	-334.11870999999974	3.0425799999999996	173.32549	-104.07408000000032	1037.9841599999997	5.24421	-154.3814599999996	1109.84605	-36.57775999999999	-213.33433999999943	1179.64742	-79.9687	-279.37024999999994	1238.1921700000003	-120.67515	-350.66705	1300.3438100000003	-163.42839	-416.49027000000024	1356.9838699999998	-201.05244	-542.1190200000001	1448.90504	-235.81113000000002	-332.2961299999997	1258.64365	-171.42813000000004	-389.4832200000001	1154.7427399999997	-216.89603	-447.4164099999998	971.3805999999997	-34.02128000000002	-493.53276000000005	739.2669199999999	72.72444	-510.62577000000056	723.51721	105.23132999999999	-499.3054000000002	708.0548800000001	136.68007	-488.5415299999995	695.11674	155.94776000000002	-477.1040700000003	682.4742700000002	169.75775000000002	-504.05911000000015	713.1960199999999	98.53101000000001	-499.9753300000002	670.05276	129.25869000000006	-485.43300999999974	645.8875500000001	151.94232999999997	-472.6328799999992	639.1952099999999	166.51905	-459.5025400000004	639.2755799999999	178.90413000000007	-495.81096999999954	709.0736100000001	90.36139999999999	-487.3696799999998	664.7614899999999	115.91293000000002	-470.41141999999945	637.9957599999998	139.48928	-454.4456199999995	629.7313700000001	156.51123	-439.8244300000006	629.72679	169.78840000000002	-490.18703000000096	707.1798199999998	83.78114	-478.0300900000002	665.5827199999999	100.89718	-462.14764000000014	641.9189	120.20441	-446.1623500000005	633.7695000000001	135.96385000000004	-432.13752999999997	633.6809899999998	148.13519000000002	-483.0422699999999	706.8950200000002	75.49826	-467.8186999999998	668.2768800000001	86.019	-453.43433000000005	648.9875999999997	99.46739000000001	-440.9685500000005	642.87884	109.98906	-428.08096000000023	642.7057400000001	120.21072999999998	-320.67872999999963	1302.0390499999999	-126.40863000000002	-279.89656000000014	1353.76126	-16.162949999999995	-318.0873700000002	1095.9970200000002	29.83592999999999	-335.7688100000005	837.6654300000001	23.358050000000006	-339.5830900000001	813.6871100000001	55.09782	-364.21245	789.26275	67.47126	-381.42626999999993	770.8503400000001	71.84939	-395.8296499999997	754.30024	71.87311	-338.1131299999997	805.56033	43.85786	-350.76978000000054	755.1719	54.94946	-370.48441	724.8948699999997	57.09844	-387.69523000000027	713.7530300000001	57.96941000000002	-405.28241999999955	709.71228	58.37661	-338.3594400000002	803.7250500000001	31.678369999999994	-350.8344699999998	753.58363	35.91049000000001	-372.3521299999993	720.47262	36.60546	-393.1188000000002	706.99553	36.86446999999999	-412.36355000000003	702.55726	36.925110000000004	-338.1026499999998	803.6464400000002	22.821579999999997	-348.7443999999996	758.4430400000001	19.01692	-367.4859799999995	729.58879	17.92918000000001	-387.5100400000001	716.59197	17.279680000000006	-405.60162000000037	712.4202600000001	16.910529999999987	-338.28942000000006	805.5499100000001	12.04768	-347.80738999999994	765.01926	2.023779999999995	-362.7486200000003	742.1199400000002	-1.4728799999999964	-377.3221600000006	732.7397000000001	-3.2167400000000015	-393.32989	729.10162	-4.274709999999999
270	1.121	-78.98710000000028	906.651	56.2195	-79.52368000000024	858.20657	-23.75445	-156.8434299999999	449.2063	-69.21143999999998	-54.93557000000055	93.57814999999998	-190.79643	-130.49494999999933	13.0929	-34.74671	-72.98718999999983	925.9334199999998	148.19742999999997	-117.92223000000013	526.1071899999997	264.76772	-218.7789499999999	97.1107	294.05199000000005	-333.7686899999999	3.2346799999999996	173.62250000000003	-103.87921000000006	1037.94803	5.055959999999999	-154.2591199999997	1109.83941	-36.627790000000005	-213.3013200000005	1179.70395	-79.79504	-279.4273800000001	1238.3827100000003	-120.16079	-350.8130600000004	1300.67912	-162.55349	-416.70006999999987	1357.45888	-199.85394	-542.1363000000001	1449.7075199999997	-234.43990000000002	-332.81286999999975	1258.79708	-170.44516000000002	-391.3596400000006	1154.74425	-213.78541	-443.74284999999963	972.4761100000001	-28.16368	-494.11744	741.92924	80.04293000000001	-508.79957000000013	727.43948	114.26870000000001	-495.3313799999996	711.66055	144.69716	-483.4624100000001	698.3227900000002	163.02014	-471.43786	685.1939	175.84224	-503.4813700000004	716.7119699999998	107.11471000000002	-498.7698099999998	673.6878400000002	137.91947000000002	-483.42045999999937	648.96299	159.43838999999997	-469.6459300000006	641.7067300000001	172.80701000000005	-455.39023	641.1746600000001	183.86569000000006	-496.2999600000003	712.06763	98.24756999999998	-487.82346999999936	667.5895699999999	123.49734000000001	-470.12690999999995	640.1431	145.70894	-453.05380999999943	631.1647399999999	161.22833999999997	-437.2344800000001	630.47369	173.03231	-491.45188000000053	709.80743	91.18339999999999	-479.9549900000002	667.7592600000002	107.64069	-463.5744999999997	643.4307100000001	125.66286999999998	-446.59838000000036	634.55472	139.92225999999997	-431.4836000000005	633.80277	150.68437	-485.1707800000004	709.0545100000002	82.25503	-471.10561999999936	669.75214	91.81008000000001	-456.5464400000001	649.8211000000001	104.08320999999997	-443.4663099999998	643.12941	113.44000000000001	-429.67554999999993	642.3381300000001	122.37260000000002	-320.3792999999996	1302.4580900000003	-125.90302	-277.88678999999956	1355.5780999999997	-16.975829999999995	-313.71105999999963	1098.2183499999996	33.01827999999999	-334.4883200000004	840.1338800000001	25.91006000000001	-335.69254	817.27857	58.66836	-359.3831800000007	793.64168	74.04068999999998	-376.3430100000005	775.6391099999998	80.58069999999998	-390.87663000000066	759.31214	82.46954	-335.34065999999984	808.76326	47.62717	-347.5265499999996	758.9611099999998	61.53608	-367.3165399999998	729.06459	66.48968	-384.50628999999935	718.21161	69.28913	-402.0302099999999	714.4452199999998	71.41723000000002	-336.70975	806.5294099999999	35.58955	-349.33281999999963	756.7442400000001	42.64608	-371.08287999999993	723.9939100000001	46.412090000000006	-391.8961900000004	710.83916	49.00283999999999	-411.1067700000003	706.6883699999998	50.94893	-337.25665000000026	806.1537300000001	26.75356	-348.7241299999996	761.01024	25.476169999999996	-367.8215599999994	732.4140799999999	27.071669999999997	-387.9720099999995	719.6982799999998	28.67478	-406.07002999999986	715.78271	30.080049999999986	-338.39573999999993	807.7018500000001	15.981340000000003	-349.25272999999925	767.0055499999999	8.252120000000005	-364.71446000000014	744.2248199999999	6.903269999999999	-379.49413000000004	735.00696	6.8020700000000005	-395.57315000000017	731.5712599999999	7.315730000000002
